<?xml version="1.0" encoding="UTF-8"?>
<svg xmlns="http://www.w3.org/2000/svg" xmlns:xlink="http://www.w3.org/1999/xlink" width="200pt" height="200pt" viewBox="0 0 200 200" version="1.1">
<g id="surface1">
<path style=" stroke:none;fill-rule:nonzero;fill:rgb(0%,0%,0%);fill-opacity:1;" d="M 181.25 25 L 18.75 25 C 8.390625 25 0 33.390625 0 43.75 L 0 156.25 C 0 166.609375 8.390625 175 18.75 175 L 181.25 175 C 191.609375 175 200 166.609375 200 156.25 L 200 43.75 C 200 33.390625 191.609375 25 181.25 25 Z M 181.25 43.75 L 181.25 59.6875 C 172.492188 66.820312 158.53125 77.914062 128.679688 101.289062 C 122.101562 106.460938 109.070312 118.890625 100 118.75 C 90.9375 118.898438 77.898438 106.460938 71.320312 101.289062 C 41.476562 77.914062 27.507812 66.820312 18.75 59.6875 L 18.75 43.75 Z M 18.75 156.25 L 18.75 83.75 C 27.703125 90.875 40.390625 100.882812 59.742188 116.03125 C 68.28125 122.75 83.234375 137.59375 100 137.5 C 116.6875 137.59375 131.445312 122.96875 140.257812 116.039062 C 159.601562 100.882812 172.296875 90.882812 181.25 83.75 L 181.25 156.25 Z M 18.75 156.25 "/>
</g>
</svg>
